<svg width="130" height="15" viewBox="0 0 130 15" fill="none" xmlns="http://www.w3.org/2000/svg">
<path d="M124.683 2.50713L125.185 0H129.998L129.496 2.50713H124.683ZM122.449 13.7242L124.527 3.23141H129.34L127.263 13.7242H122.449Z" fill="#0D0D0D"/>
<path d="M113.39 13.9659C111.52 13.9659 109.875 13.0931 109.875 11.2359C109.875 8.74739 112.264 8.06025 115.346 7.67026C117.476 7.42883 118.065 7.07597 118.065 6.44455C118.065 5.98027 117.528 5.75741 116.922 5.75741C116.125 5.75741 115.485 6.16598 115.173 7.0574H110.879C111.71 4.32742 114.29 2.93457 117.251 2.93457C120.887 2.93457 123.172 4.58742 122.497 7.9674L121.354 13.7245H116.645L116.835 12.7402C115.9 13.5388 114.688 13.9659 113.39 13.9659ZM114.481 10.7531C114.481 11.2174 114.879 11.4774 115.519 11.4774C116.143 11.4774 116.783 11.2174 117.216 10.846L117.476 9.54596L117.58 9.04453C117.199 9.23025 116.731 9.36025 116.143 9.4531C115.017 9.67596 114.481 10.0288 114.481 10.7531Z" fill="#0D0D0D"/>
<path d="M104.305 13.7251L105.049 9.95508H109.378L108.651 13.7251H104.305Z" fill="#0D0D0D"/>
<path d="M84.5078 13.7245L86.5855 3.23166H91.3816L91.1392 4.51308C92.0395 3.51023 93.1476 2.99023 94.4116 2.99023C95.9352 2.99023 97.0087 3.71452 97.4589 4.86594C98.4977 3.64023 99.779 2.99023 101.285 2.99023C103.779 2.99023 105.181 4.71737 104.679 7.22449L103.398 13.7245H98.6016L99.8136 7.54021C100.004 6.7045 99.5712 6.16593 98.8267 6.16593C98.3765 6.16593 97.9956 6.35164 97.6667 6.66735C97.6493 6.8345 97.632 7.02021 97.5974 7.18735L96.2988 13.7245H91.6067L92.836 7.54021C92.9918 6.7045 92.6109 6.1845 91.8664 6.1845C91.4335 6.1845 91.018 6.38879 90.7063 6.68593L89.3212 13.7245H84.5078Z" fill="#F17BB6"/>
<path d="M75.4484 13.9659C73.5785 13.9659 71.9336 13.0931 71.9336 11.2359C71.9336 8.74739 74.323 8.06025 77.4049 7.67026C79.5346 7.42883 80.1232 7.07597 80.1232 6.44455C80.1232 5.98027 79.5865 5.75741 78.9805 5.75741C78.184 5.75741 77.5434 6.16598 77.2318 7.0574H72.9378C73.7689 4.32742 76.3487 2.93457 79.3095 2.93457C82.9455 2.93457 85.2309 4.58742 84.5557 7.9674L83.4129 13.7245H78.7035L78.8939 12.7402C77.959 13.5388 76.747 13.9659 75.4484 13.9659ZM76.5392 10.7531C76.5392 11.2174 76.9374 11.4774 77.578 11.4774C78.2014 11.4774 78.842 11.2174 79.2748 10.846L79.5346 9.54596L79.6384 9.04453C79.2575 9.23025 78.79 9.36025 78.2014 9.4531C77.0759 9.67596 76.5392 10.0288 76.5392 10.7531Z" fill="#F17BB6"/>
<path d="M65.0636 14.0588C61.618 14.0588 59.3672 12.1645 59.3672 9.23026C59.3672 8.89598 59.4018 8.54312 59.4538 8.19027C59.9905 4.95886 62.7435 2.91602 66.2409 2.91602C69.7038 2.91602 71.972 4.75458 71.972 7.57741C71.972 8.02313 71.92 8.48741 71.8334 8.97026H63.8516C63.8343 9.10026 63.8343 9.23026 63.8343 9.34169C63.8343 10.5674 64.3883 11.1803 65.3579 11.1803C66.1371 11.1803 66.7777 10.716 67.1932 9.71312H71.6084C70.6561 12.4988 68.1455 14.0588 65.0636 14.0588ZM66.1197 5.66457C65.306 5.66457 64.6134 6.18457 64.1979 7.33599H67.678V7.15028C67.678 6.22171 67.0028 5.66457 66.1197 5.66457Z" fill="#F17BB6"/>
<path d="M49.1836 13.7234L51.2613 3.23064H56.092L55.7457 5.01348C56.7153 3.73206 57.9446 3.04492 59.5721 3.04492C59.728 3.04492 59.8838 3.04492 60.0396 3.06349L59.2951 6.88918C58.8276 6.70347 58.2563 6.61062 57.7022 6.61062C56.7672 6.61062 55.8323 6.88918 55.2609 7.44632L54.0143 13.7234H49.1836Z" fill="#F17BB6"/>
<path d="M40.0845 13.9836C37.5912 13.9836 36.0156 12.275 36.0156 9.60072C36.0156 9.13644 36.0676 8.61644 36.1715 8.09645C36.8121 4.82789 38.9417 2.98933 41.5216 2.98933C43.1664 2.98933 44.3957 3.75076 45.0017 5.06932L45.8674 0.723633H50.6981L48.1183 13.7236H43.2876L43.53 12.4793C42.595 13.4636 41.4004 13.9836 40.0845 13.9836ZM42.2141 10.9193C43.2357 10.9193 44.0668 10.1764 44.3784 8.59787C44.4304 8.30073 44.465 8.02216 44.465 7.78073C44.465 6.64788 43.8763 6.0536 42.8894 6.0536C41.8678 6.0536 41.0541 6.77788 40.7424 8.39359C40.6905 8.69073 40.6558 8.9693 40.6558 9.21072C40.6558 10.325 41.2445 10.9193 42.2141 10.9193Z" fill="#F17BB6"/>
<path d="M25.8867 13.7234L27.9644 3.23064H32.7951L32.4488 5.01348C33.4184 3.73206 34.6477 3.04492 36.2753 3.04492C36.4311 3.04492 36.5869 3.04492 36.7428 3.06349L35.9982 6.88918C35.5308 6.70347 34.9594 6.61062 34.4053 6.61062C33.4704 6.61062 32.5354 6.88918 31.964 7.44632L30.7174 13.7234H25.8867Z" fill="#F17BB6"/>
<path d="M16.8529 13.9657C14.6887 13.9657 13.3555 12.6285 13.3555 10.6414C13.3555 10.3257 13.3901 9.9914 13.4594 9.65712L14.7406 3.23145H19.5713L18.342 9.37855C18.3247 9.50855 18.3073 9.61998 18.3073 9.73141C18.3073 10.3814 18.7056 10.79 19.4155 10.79C19.9003 10.79 20.3504 10.5671 20.6794 10.2328L22.0645 3.23145H26.8952L24.8175 13.7242H19.9868L20.2639 12.35C19.3289 13.39 18.1861 13.9657 16.8529 13.9657Z" fill="#F17BB6"/>
<path d="M5.9561 14.0588C2.424 14.0588 0 12.276 0 9.24885C0 8.896 0.0346285 8.54314 0.103886 8.15314C0.657942 4.82888 3.48017 2.89746 6.99496 2.89746C10.5271 2.89746 12.9511 4.68031 12.9511 7.70743C12.9511 8.06029 12.9164 8.41314 12.8472 8.80314C12.2931 12.146 9.4709 14.0588 5.9561 14.0588ZM6.12925 10.9388C7.11616 10.9388 7.98187 10.2517 8.29353 8.58028C8.34547 8.30171 8.3801 8.04171 8.3801 7.80029C8.3801 6.64887 7.7741 6.05458 6.82182 6.05458C5.83491 6.05458 4.95188 6.74172 4.64022 8.41314C4.58828 8.69171 4.57096 8.93314 4.57096 9.17457C4.57096 10.326 5.15965 10.9388 6.12925 10.9388Z" fill="#F17BB6"/>
</svg>
